<?xml version="1.0" standalone="no"?>
<!DOCTYPE svg PUBLIC "-//W3C//DTD SVG 20010904//EN"
 "http://www.w3.org/TR/2001/REC-SVG-20010904/DTD/svg10.dtd">
<svg version="1.0" xmlns="http://www.w3.org/2000/svg"
 width="3152.000000pt" height="3152.000000pt" viewBox="0 0 3152.000000 3152.000000"
 preserveAspectRatio="xMidYMid meet">
<metadata>
Created by potrace 1.14, written by Peter Selinger 2001-2017
</metadata>
<g transform="translate(0.000000,3152.000000) scale(0.100000,-0.100000)"
fill="#000000" stroke="none">
<path d="M34 19358 c-3 -4 -11 -5 -19 -1 -13 4 -15 -29 -15 -240 l0 -246 30 9
c16 5 30 6 30 2 0 -4 16 -7 35 -7 19 0 35 2 35 5 0 7 79 4 86 -3 3 -3 17 -2
30 3 14 6 26 6 29 0 3 -5 15 -6 28 -1 12 5 34 5 49 0 17 -5 28 -4 28 2 0 6 5
7 11 3 6 -3 37 -6 69 -6 32 0 63 3 69 6 6 4 11 4 11 -1 0 -4 16 -8 35 -8 19 0
35 2 35 5 0 3 17 4 38 2 20 -1 66 -2 102 -2 36 1 71 1 78 0 6 0 19 0 27 0 34
0 52 0 97 -1 26 0 52 2 58 6 5 3 10 3 10 -2 0 -4 16 -8 35 -8 19 0 35 2 35 5
0 7 79 4 86 -3 3 -3 17 -2 30 3 14 6 26 6 29 0 3 -5 15 -6 28 -1 12 5 34 5 49
0 17 -5 28 -4 28 2 0 6 5 7 11 3 6 -3 37 -6 69 -6 32 0 63 3 69 6 6 4 11 4 11
-1 0 -4 16 -8 35 -8 19 0 35 2 35 5 0 3 17 4 38 2 20 -1 66 -2 102 -2 36 1 71
1 78 0 6 0 19 0 27 0 34 0 52 0 97 -1 26 0 52 2 58 6 5 3 10 3 10 -2 0 -4 16
-8 35 -8 19 0 35 2 35 5 0 7 79 4 86 -3 3 -3 17 -2 30 3 14 6 26 6 29 0 3 -6
15 -6 30 0 14 5 25 6 25 1 0 -5 16 -5 35 -1 19 4 35 5 35 1 0 -3 29 -6 65 -6
36 0 65 3 65 7 0 4 13 3 28 -2 16 -4 35 -4 43 1 8 4 21 4 28 -1 8 -4 27 -4 42
0 16 5 29 6 29 2 0 -4 16 -7 35 -7 19 0 35 2 35 5 0 7 79 4 86 -3 3 -3 17 -2
30 3 14 6 26 6 29 0 3 -5 15 -6 28 -1 12 5 34 5 49 0 17 -5 28 -4 28 2 0 6 5
7 11 3 6 -3 37 -6 69 -6 32 0 63 3 69 6 6 4 11 4 11 -1 0 -4 16 -8 35 -8 19 0
35 2 35 5 0 3 17 4 38 2 20 -1 66 -2 102 -2 36 1 71 1 78 0 6 0 19 0 27 0 34
0 52 0 97 -1 26 0 52 2 58 6 5 3 10 3 10 -2 0 -4 16 -8 35 -8 19 0 35 2 35 5
0 7 79 4 86 -3 3 -3 17 -2 30 3 14 6 26 6 29 0 3 -5 15 -6 28 -1 12 5 34 5 49
0 17 -5 28 -4 28 2 0 6 5 7 11 3 6 -3 37 -6 69 -6 32 0 63 3 69 6 6 4 11 4 11
-1 0 -4 16 -8 35 -8 19 0 35 2 35 5 0 3 17 4 38 2 20 -1 66 -2 102 -2 36 1 71
1 78 0 6 0 19 0 27 0 34 0 52 0 97 -1 26 0 52 2 58 6 5 3 10 3 10 -2 0 -4 16
-8 35 -8 19 0 35 2 35 5 0 7 79 4 86 -3 3 -3 17 -2 30 3 14 6 26 6 29 0 3 -6
15 -6 30 0 14 5 25 6 25 1 0 -5 16 -5 35 -1 19 4 35 5 35 1 0 -3 29 -6 65 -6
36 0 65 3 65 7 0 4 13 3 28 -2 16 -4 35 -4 43 1 8 4 21 4 28 -1 8 -4 27 -4 42
0 16 5 29 6 29 2 0 -4 16 -7 35 -7 19 0 35 2 35 5 0 7 79 4 86 -3 3 -3 17 -2
30 3 14 6 26 6 29 0 3 -5 15 -6 28 -1 12 5 34 5 49 0 17 -5 28 -4 28 2 0 6 5
7 11 3 6 -3 37 -6 69 -6 32 0 63 3 69 6 6 4 11 4 11 -1 0 -4 16 -8 35 -8 19 0
35 2 35 5 0 3 17 4 38 2 20 -1 66 -2 102 -2 36 1 71 1 78 0 6 0 19 0 27 0 34
0 52 0 97 -1 26 0 52 2 58 6 5 3 10 3 10 -2 0 -4 16 -8 35 -8 19 0 35 2 35 5
0 7 79 4 86 -3 3 -3 17 -2 30 3 14 6 26 6 29 0 3 -5 15 -6 28 -1 12 5 34 5 49
0 17 -5 28 -4 28 2 0 6 5 7 11 3 6 -3 37 -6 69 -6 32 0 63 3 69 6 6 4 11 4 11
-1 0 -4 16 -8 35 -8 19 0 35 2 35 5 0 3 17 4 38 2 20 -1 66 -2 102 -2 36 1 71
1 78 0 6 0 19 0 27 0 34 0 52 0 97 -1 26 0 52 2 58 6 5 3 10 3 10 -2 0 -4 16
-8 35 -8 19 0 35 2 35 5 0 7 79 4 86 -3 3 -3 17 -2 30 3 14 6 26 6 29 0 3 -6
15 -6 30 0 14 5 25 6 25 1 0 -5 16 -5 35 -1 19 4 35 5 35 1 0 -3 29 -6 65 -6
36 0 65 3 65 7 0 4 13 3 28 -2 16 -4 35 -4 43 1 8 4 21 4 28 -1 8 -4 27 -4 42
0 16 5 29 6 29 2 0 -4 16 -7 35 -7 19 0 35 2 35 5 0 7 79 4 86 -3 3 -3 17 -2
30 3 14 6 26 6 29 0 3 -5 15 -6 28 -1 12 5 34 5 49 0 17 -5 28 -4 28 2 0 6 5
7 11 3 6 -3 37 -6 69 -6 32 0 63 3 69 6 6 4 11 4 11 -1 0 -4 16 -8 35 -8 19 0
35 2 35 5 0 3 17 4 38 2 20 -1 66 -2 102 -2 36 1 71 1 78 0 6 0 19 0 27 0 34
0 52 0 97 -1 26 0 52 2 58 6 5 3 10 3 10 -2 0 -4 16 -8 35 -8 19 0 35 2 35 5
0 7 79 4 86 -3 3 -3 17 -2 30 3 14 6 26 6 29 0 3 -5 15 -6 28 -1 12 5 34 5 49
0 17 -5 28 -4 28 2 0 6 5 7 11 3 6 -3 37 -6 69 -6 32 0 63 3 69 6 6 4 11 4 11
-1 0 -4 16 -8 35 -8 19 0 35 2 35 5 0 3 17 4 38 2 20 -1 66 -2 102 -2 36 1 71
1 78 0 6 0 19 0 27 0 34 0 52 0 97 -1 26 0 52 2 58 6 5 3 10 3 10 -2 0 -4 16
-8 35 -8 19 0 35 2 35 5 0 7 79 4 86 -3 3 -3 17 -2 30 3 14 6 26 6 29 0 3 -6
15 -6 30 0 14 5 25 6 25 1 0 -5 16 -5 35 -1 19 4 35 5 35 1 0 -3 29 -6 65 -6
36 0 65 3 65 7 0 4 13 3 29 -2 15 -4 33 -5 39 -1 6 3 28 5 49 3 21 -1 67 -2
103 -2 36 1 71 1 78 0 6 0 19 0 27 0 34 0 52 0 97 -1 26 0 52 2 58 6 5 3 10 3
10 -2 0 -4 16 -8 35 -8 19 0 35 2 35 5 0 7 79 4 86 -3 3 -3 17 -2 30 3 14 6
26 6 29 0 3 -5 15 -6 28 -1 12 5 34 5 49 0 17 -5 28 -4 28 2 0 6 5 7 11 3 6
-3 37 -6 69 -6 32 0 63 3 69 6 6 4 11 4 11 -1 0 -4 16 -8 35 -8 19 0 35 2 35
5 0 3 17 4 38 2 20 -1 66 -2 102 -2 36 1 71 1 78 0 6 0 19 0 27 0 34 0 52 0
97 -1 26 0 52 2 58 6 5 3 10 3 10 -2 0 -4 16 -8 35 -8 19 0 35 2 35 5 0 7 79
4 86 -3 3 -3 17 -2 30 3 14 6 26 6 29 0 3 -5 15 -6 28 -1 12 5 34 5 49 0 17
-5 28 -4 28 2 0 6 5 7 11 3 6 -3 37 -6 69 -6 32 0 63 3 69 6 6 4 11 4 11 -1 0
-4 16 -8 35 -8 19 0 35 2 35 5 0 3 17 4 38 2 20 -1 66 -2 102 -2 36 1 71 1 78
0 6 0 19 0 27 0 34 0 52 0 97 -1 26 0 52 2 58 6 5 3 10 3 10 -2 0 -4 16 -8 35
-8 19 0 35 3 35 7 0 3 8 4 18 2 32 -8 142 -9 142 -2 0 4 7 5 17 1 13 -5 15 -2
11 15 -4 12 -3 22 0 22 8 0 8 53 -1 66 -3 6 -2 16 3 23 4 8 4 27 0 42 -5 16
-6 29 -2 29 6 0 7 56 2 70 -1 3 -1 10 0 15 5 23 3 125 -3 131 -3 4 -2 15 3 24
7 12 6 21 -3 27 -20 16 -46 23 -52 13 -3 -6 -15 -6 -30 0 -15 6 -27 6 -30 0
-3 -6 -15 -6 -30 0 -15 6 -27 6 -30 0 -3 -6 -15 -6 -30 0 -15 6 -27 6 -30 0
-3 -6 -15 -6 -30 0 -15 6 -27 6 -30 0 -3 -6 -15 -6 -30 0 -15 6 -27 6 -30 0
-3 -6 -15 -6 -30 0 -15 6 -27 6 -30 0 -3 -6 -15 -6 -30 0 -15 6 -27 6 -30 0
-3 -6 -15 -6 -30 0 -15 6 -27 6 -30 -1 -4 -5 -11 -7 -16 -3 -12 7 -123 9 -135
2 -5 -3 -18 -2 -29 2 -11 4 -30 4 -41 -1 -12 -4 -25 -5 -28 -2 -7 7 -134 8
-142 1 -3 -3 -21 -2 -40 2 -19 4 -36 4 -39 -1 -3 -4 -16 -4 -28 0 -12 5 -32 5
-44 0 -13 -5 -23 -5 -23 -1 0 6 -138 7 -147 2 -8 -5 -84 -2 -89 3 -3 3 -17 2
-30 -3 -14 -6 -26 -6 -29 0 -3 6 -15 6 -30 0 -15 -6 -27 -6 -30 0 -3 6 -15 6
-30 0 -15 -6 -27 -6 -30 0 -3 6 -15 6 -30 0 -15 -6 -27 -6 -30 0 -3 6 -15 6
-30 0 -15 -6 -27 -6 -30 0 -3 6 -15 6 -30 0 -15 -6 -27 -6 -30 0 -3 6 -15 6
-30 0 -15 -6 -27 -6 -30 0 -3 6 -15 6 -30 0 -15 -6 -27 -6 -30 0 -3 6 -15 6
-30 0 -15 -6 -27 -6 -30 0 -3 6 -15 6 -30 0 -15 -6 -27 -6 -30 0 -3 5 -15 6
-29 0 -12 -4 -29 -4 -36 0 -8 5 -21 5 -30 0 -9 -5 -22 -5 -30 0 -8 5 -21 5
-30 0 -9 -5 -22 -5 -30 0 -8 5 -21 5 -30 0 -9 -5 -22 -5 -30 0 -8 5 -21 5 -31
0 -9 -5 -19 -7 -22 -4 -8 9 -237 10 -237 1 0 -5 -4 -5 -10 -2 -13 8 -113 10
-126 3 -5 -3 -18 -2 -29 2 -11 4 -30 4 -41 -1 -12 -4 -25 -5 -28 -2 -7 7 -134
8 -142 1 -3 -3 -21 -2 -40 2 -19 4 -36 4 -39 -1 -3 -4 -16 -4 -28 0 -12 5 -32
5 -44 0 -13 -5 -23 -5 -23 -1 0 6 -138 7 -147 2 -8 -5 -84 -2 -89 3 -3 3 -17
2 -30 -3 -14 -6 -24 -6 -24 0 0 5 -12 5 -28 1 -15 -5 -37 -5 -49 0 -13 5 -25
4 -28 -1 -4 -6 -13 -7 -24 -1 -10 6 -23 6 -31 1 -8 -5 -21 -5 -30 0 -9 5 -22
5 -30 0 -8 -5 -21 -5 -30 0 -9 5 -22 5 -30 0 -7 -4 -24 -4 -36 0 -14 6 -26 5
-29 0 -3 -6 -15 -6 -30 0 -15 6 -27 6 -30 0 -3 -6 -15 -6 -30 0 -15 6 -27 6
-30 0 -3 -6 -15 -6 -30 0 -15 6 -27 6 -30 0 -3 -6 -15 -6 -30 0 -15 6 -27 6
-30 0 -3 -6 -15 -6 -30 0 -15 6 -27 6 -30 0 -3 -6 -15 -6 -30 0 -15 6 -27 6
-30 0 -3 -6 -15 -6 -30 0 -15 6 -27 6 -30 0 -3 -6 -15 -6 -30 0 -15 6 -27 6
-30 0 -3 -6 -15 -6 -30 0 -15 6 -27 6 -30 0 -3 -6 -15 -6 -30 0 -15 6 -27 6
-30 0 -3 -6 -15 -6 -30 0 -15 6 -27 6 -30 0 -3 -6 -15 -6 -30 0 -15 6 -27 6
-30 -1 -4 -5 -11 -7 -16 -3 -12 7 -123 9 -135 2 -5 -3 -18 -2 -29 2 -11 4 -30
4 -41 -1 -12 -4 -25 -5 -28 -2 -7 7 -134 8 -142 1 -3 -3 -21 -2 -40 2 -19 4
-36 4 -39 -1 -3 -4 -16 -4 -28 0 -12 5 -32 5 -44 0 -13 -5 -23 -5 -23 -1 0 8
-138 8 -146 0 -3 -3 -21 -2 -40 2 -19 4 -36 4 -39 -1 -3 -4 -16 -5 -28 0 -12
5 -31 5 -42 1 -11 -4 -24 -5 -29 -2 -12 7 -135 7 -142 0 -3 -3 -21 -2 -40 2
-19 4 -36 4 -39 -1 -3 -4 -16 -4 -28 0 -12 5 -32 5 -44 0 -13 -5 -23 -5 -23
-1 0 6 -138 7 -147 2 -8 -5 -84 -2 -89 3 -3 3 -17 2 -30 -3 -14 -6 -24 -6 -24
0 0 5 -12 5 -28 1 -15 -5 -37 -5 -49 0 -13 5 -25 4 -28 -1 -4 -6 -13 -7 -24
-1 -10 6 -23 6 -31 1 -8 -5 -21 -5 -30 0 -9 5 -22 5 -30 0 -8 -5 -21 -5 -30 0
-9 5 -22 5 -30 0 -7 -4 -24 -4 -36 0 -14 6 -26 5 -29 0 -3 -6 -15 -6 -30 0
-15 6 -27 6 -30 0 -3 -6 -15 -6 -30 0 -15 6 -27 6 -30 0 -3 -6 -15 -6 -30 0
-15 6 -27 6 -30 0 -3 -6 -15 -6 -30 0 -15 6 -27 6 -30 0 -3 -6 -15 -6 -30 0
-15 6 -27 6 -30 0 -3 -6 -15 -6 -30 0 -15 6 -27 6 -30 0 -3 -6 -15 -6 -30 0
-15 6 -27 6 -30 0 -3 -6 -15 -6 -30 0 -15 6 -27 6 -30 0 -3 -6 -15 -6 -30 0
-15 6 -27 6 -30 0 -3 -6 -15 -6 -30 0 -15 6 -27 6 -30 0 -3 -6 -15 -6 -30 0
-15 6 -27 6 -30 0 -3 -6 -15 -6 -30 0 -15 6 -27 6 -30 -1 -4 -5 -11 -7 -16 -3
-12 7 -123 9 -135 2 -5 -3 -18 -2 -29 2 -11 4 -30 4 -41 -1 -12 -4 -25 -5 -28
-2 -7 7 -134 8 -142 1 -3 -3 -21 -2 -40 2 -19 4 -36 4 -39 -1 -3 -4 -16 -4
-28 0 -12 5 -32 5 -44 0 -13 -5 -23 -5 -23 -1 0 8 -138 8 -146 0 -3 -3 -21 -2
-40 2 -19 4 -36 4 -39 -1 -3 -4 -16 -5 -28 0 -12 5 -31 5 -42 1 -11 -4 -24 -5
-29 -2 -12 7 -135 7 -142 0 -3 -3 -21 -2 -40 2 -19 4 -36 4 -39 -1 -3 -4 -16
-4 -28 0 -12 5 -32 5 -44 0 -13 -5 -23 -5 -23 -1 0 6 -138 7 -147 2 -8 -5 -84
-2 -89 3 -3 3 -17 2 -30 -3 -14 -6 -24 -6 -24 0 0 5 -12 5 -28 1 -15 -5 -37
-5 -49 0 -13 5 -25 4 -28 -1 -4 -6 -13 -7 -24 -1 -10 6 -23 6 -31 1 -8 -5 -21
-5 -30 0 -9 5 -22 5 -30 0 -8 -5 -21 -5 -30 0 -9 5 -22 5 -30 0 -7 -4 -24 -4
-36 0 -14 6 -26 5 -29 0 -3 -6 -15 -6 -30 0 -15 6 -27 6 -30 0 -3 -6 -15 -6
-30 0 -15 6 -27 6 -30 0 -3 -6 -15 -6 -30 0 -15 6 -27 6 -30 0 -3 -6 -15 -6
-30 0 -15 6 -27 6 -30 0 -3 -6 -15 -6 -30 0 -15 6 -27 6 -30 0 -3 -6 -15 -6
-30 0 -15 6 -27 6 -30 0 -3 -6 -15 -6 -30 0 -15 6 -27 6 -30 0 -3 -6 -15 -6
-30 0 -15 6 -27 6 -30 0 -3 -6 -15 -6 -30 0 -15 6 -27 6 -30 0 -3 -6 -15 -6
-30 0 -15 6 -27 6 -30 0 -3 -6 -15 -6 -30 0 -15 6 -27 6 -30 0 -3 -6 -15 -6
-30 0 -15 6 -27 6 -30 -1 -4 -5 -11 -7 -16 -3 -12 7 -123 9 -135 2 -5 -3 -18
-2 -29 2 -11 4 -30 4 -41 -1 -12 -4 -25 -5 -28 -2 -7 7 -134 8 -142 1 -3 -3
-21 -2 -40 2 -19 4 -36 4 -39 -1 -3 -4 -16 -4 -28 0 -12 5 -32 5 -44 0 -13 -5
-23 -5 -23 -1 0 8 -138 8 -146 0 -3 -3 -21 -2 -40 2 -19 4 -36 4 -39 -1 -3 -4
-16 -5 -28 0 -12 5 -31 5 -42 1 -11 -4 -24 -5 -29 -2 -12 7 -135 7 -142 0 -3
-3 -21 -2 -40 2 -19 4 -36 4 -39 -1 -3 -4 -16 -4 -28 0 -12 5 -32 5 -44 0 -13
-5 -23 -5 -23 -1 0 6 -138 7 -147 2 -8 -5 -84 -2 -89 3 -3 3 -17 2 -30 -3 -14
-6 -24 -6 -24 0 0 5 -12 5 -28 1 -15 -5 -37 -5 -49 0 -13 5 -25 4 -28 -1 -4
-6 -13 -7 -24 -1 -10 6 -23 6 -31 1 -8 -5 -21 -5 -30 0 -9 5 -22 5 -30 0 -8
-5 -21 -5 -30 0 -9 5 -22 5 -30 0 -7 -4 -24 -4 -36 0 -14 6 -26 5 -29 0 -3 -6
-15 -6 -30 0 -15 6 -27 6 -30 0 -3 -6 -15 -6 -30 0 -15 6 -27 6 -30 0 -3 -6
-15 -6 -30 0 -15 6 -27 6 -30 0 -3 -6 -15 -6 -30 0 -15 6 -27 6 -30 0 -3 -6
-15 -6 -30 0 -15 6 -27 6 -30 0 -3 -6 -15 -6 -30 0 -15 6 -27 6 -30 0 -3 -6
-15 -6 -30 0 -15 6 -27 6 -30 0 -3 -6 -15 -6 -30 0 -15 6 -27 6 -30 0 -3 -6
-15 -6 -30 0 -15 6 -27 6 -30 0 -3 -6 -15 -6 -30 0 -15 6 -27 6 -30 0 -3 -6
-15 -6 -30 0 -15 6 -27 6 -30 0 -3 -6 -15 -6 -30 0 -15 6 -27 6 -30 -1 -4 -5
-11 -7 -16 -3 -12 7 -123 9 -135 2 -5 -3 -18 -2 -29 2 -11 4 -30 4 -41 -1 -12
-4 -25 -5 -28 -2 -7 7 -134 8 -142 1 -3 -3 -21 -2 -40 2 -19 4 -36 4 -39 -1
-3 -4 -16 -4 -28 0 -12 5 -32 5 -44 0 -13 -5 -23 -5 -23 -1 0 9 -141 9 -146 0z"/>
<path d="M9767 17824 c-1 -1 -33 -5 -72 -9 -102 -10 -117 -12 -150 -19 -16 -3
-39 -8 -50 -10 -131 -25 -348 -117 -402 -172 -8 -7 -18 -14 -22 -14 -20 0
-156 -147 -217 -235 -18 -26 -107 -202 -109 -215 -2 -10 -37 -116 -45 -135 -5
-11 -14 -47 -21 -80 -7 -33 -14 -64 -15 -70 -1 -5 -5 -28 -9 -50 -3 -22 -9
-53 -12 -70 -6 -36 -10 -79 -19 -205 -8 -126 -8 -2027 1 -2155 4 -55 8 -119 9
-142 0 -24 5 -43 9 -43 5 0 6 -4 3 -8 -4 -7 21 -153 42 -247 11 -50 58 -188
79 -235 40 -91 96 -192 116 -212 9 -10 17 -22 17 -27 0 -18 154 -165 213 -204
115 -76 322 -156 449 -172 18 -2 58 -8 88 -12 69 -10 417 -10 490 0 94 13 107
15 127 21 10 3 33 8 50 11 40 6 206 66 213 75 3 4 15 10 27 14 43 14 170 104
230 164 101 101 188 237 248 387 31 78 75 225 81 268 2 15 5 31 8 35 2 4 7 31
11 61 4 30 9 63 11 75 16 76 19 282 18 1281 0 1020 -3 1230 -20 1275 -3 8 -8
31 -10 50 -16 127 -63 285 -125 418 -21 45 -38 85 -38 89 0 3 -5 9 -13 14 -7
5 -13 12 -13 16 -1 29 -217 273 -243 273 -4 0 -17 8 -28 19 -34 32 -205 110
-298 136 -112 32 -128 35 -276 51 -49 5 -328 12 -333 8z m343 -529 c178 -46
271 -133 335 -311 25 -72 32 -98 50 -210 15 -90 18 -285 18 -1299 0 -969 -5
-1313 -18 -1335 -2 -3 -6 -26 -10 -50 -22 -154 -90 -308 -167 -378 -38 -34
-138 -96 -138 -86 0 3 -6 2 -12 -3 -7 -4 -17 -8 -23 -10 -5 -1 -21 -5 -35 -8
-114 -27 -312 -28 -423 -2 -179 44 -276 134 -343 319 -9 24 -17 52 -20 63 -2
11 -6 29 -8 40 -18 80 -27 139 -30 195 -3 36 -5 65 -6 65 -5 0 -6 2341 -1
2349 2 5 5 28 7 50 3 58 14 148 20 168 3 9 7 26 9 38 14 73 53 167 96 230 36
55 81 100 98 100 5 0 14 7 21 15 12 14 95 49 147 61 112 26 333 25 433 -1z"/>
<path d="M27227 17824 c-1 -1 -31 -5 -67 -8 -116 -10 -204 -28 -282 -57 -29
-11 -57 -21 -63 -23 -5 -1 -21 -8 -35 -16 -14 -8 -30 -15 -37 -16 -31 -5 -166
-105 -234 -173 -68 -67 -167 -202 -173 -234 -1 -7 -12 -32 -24 -57 -21 -46
-56 -167 -66 -230 -4 -19 -9 -53 -13 -75 -8 -54 -8 -315 1 -390 4 -33 9 -73
11 -90 2 -16 4 -30 5 -30 1 0 4 -16 7 -34 8 -57 53 -192 89 -264 74 -151 205
-304 414 -487 41 -36 92 -81 114 -100 22 -19 50 -44 61 -55 12 -11 43 -38 69
-60 27 -22 58 -49 70 -60 103 -93 141 -127 191 -170 32 -27 68 -59 80 -70 13
-11 51 -45 86 -75 62 -54 264 -254 305 -301 86 -101 144 -199 178 -299 24 -73
28 -92 42 -195 21 -162 -5 -340 -68 -455 -82 -149 -232 -220 -454 -215 -286 5
-454 149 -554 473 -16 53 -32 108 -35 122 -2 14 -9 48 -15 75 -6 28 -13 73
-16 100 -3 28 -8 61 -10 75 -6 24 -11 80 -13 126 -1 27 -19 26 -166 -16 -60
-17 -166 -46 -235 -64 -188 -51 -183 -48 -176 -99 3 -23 8 -69 11 -102 7 -62
11 -93 20 -135 3 -14 7 -38 10 -55 3 -16 9 -48 15 -70 6 -22 13 -50 16 -63 8
-37 66 -196 75 -207 5 -5 9 -17 9 -26 0 -10 3 -19 8 -21 4 -1 18 -25 32 -53
42 -85 117 -188 190 -263 38 -40 74 -72 79 -72 5 0 11 -4 13 -8 10 -25 214
-141 262 -149 11 -2 24 -7 30 -12 10 -8 59 -24 81 -26 6 -1 33 -6 60 -13 91
-22 128 -25 310 -27 186 -2 275 9 413 51 76 23 218 91 263 126 20 15 40 28 43
28 4 0 17 10 30 23 13 12 48 45 77 73 60 58 76 75 123 142 62 88 137 269 160
387 27 142 27 420 1 557 -18 88 -20 98 -27 118 -3 8 -16 47 -28 85 -50 156
-185 385 -330 556 -85 101 -254 265 -414 402 -12 10 -48 42 -80 70 -32 29 -68
60 -80 70 -46 39 -120 103 -146 127 -15 14 -54 48 -86 75 -32 28 -65 57 -74
65 -9 8 -49 44 -90 79 -300 259 -373 392 -384 696 -5 147 48 302 134 386 75
74 203 129 300 130 19 0 62 0 95 1 54 0 103 -4 160 -16 72 -15 169 -69 223
-124 31 -33 92 -129 92 -147 0 -8 5 -15 10 -15 6 0 10 -7 10 -15 0 -9 7 -30
16 -47 8 -16 17 -40 18 -52 2 -11 6 -28 9 -36 11 -27 37 -136 42 -176 12 -91
22 -177 24 -206 1 -15 5 -15 54 -2 28 8 59 17 67 19 73 18 291 78 316 86 29 9
57 16 94 23 18 4 21 63 8 140 -17 102 -50 261 -56 271 -4 6 -8 19 -10 30 -5
28 -8 37 -20 68 -7 16 -12 31 -12 34 0 13 -65 148 -75 155 -5 4 -6 8 -1 8 5 0
2 8 -7 18 -9 9 -20 27 -24 39 -15 39 -131 171 -201 227 -138 111 -335 187
-553 212 -53 6 -287 13 -292 8z"/>
<path d="M29927 17824 c-1 -1 -33 -5 -72 -9 -38 -4 -72 -8 -75 -10 -3 -2 -21
-6 -40 -9 -111 -17 -276 -85 -383 -158 -65 -44 -227 -201 -227 -220 0 -6 -6
-19 -14 -27 -69 -80 -141 -293 -162 -481 -7 -56 -7 -302 0 -350 2 -19 8 -60
11 -90 4 -30 11 -64 15 -75 4 -11 6 -28 5 -37 -2 -10 0 -18 4 -18 4 0 8 -6 8
-12 1 -28 25 -100 58 -172 35 -78 110 -198 126 -204 5 -2 9 -8 9 -13 0 -21
162 -186 310 -314 50 -44 102 -89 114 -100 12 -11 50 -45 85 -75 35 -30 73
-64 85 -75 13 -11 53 -47 91 -80 37 -33 80 -71 95 -85 15 -14 53 -47 85 -75
252 -216 406 -375 496 -510 24 -37 44 -71 44 -75 0 -5 6 -15 13 -21 6 -7 12
-20 12 -29 0 -9 3 -20 7 -24 4 -3 8 -12 9 -19 2 -7 10 -37 18 -67 37 -136 40
-345 6 -471 -46 -170 -164 -283 -338 -322 -62 -14 -242 -16 -292 -2 -14 3 -29
7 -35 8 -5 2 -16 6 -22 10 -7 5 -13 5 -13 2 0 -3 -27 8 -59 25 -63 34 -145
105 -178 155 -33 49 -73 125 -67 125 4 0 1 7 -7 16 -44 53 -121 396 -133 592
-2 23 -5 44 -8 47 -3 3 -36 -3 -74 -13 -38 -11 -73 -21 -79 -22 -5 -1 -14 -4
-20 -6 -5 -2 -82 -21 -170 -44 -88 -23 -167 -43 -175 -46 -8 -3 -15 -4 -15 -3
0 1 -10 -3 -22 -9 -15 -8 -20 -19 -18 -33 2 -12 7 -51 9 -88 3 -36 7 -75 10
-86 5 -30 19 -118 21 -135 1 -8 6 -33 13 -55 6 -22 13 -51 16 -65 2 -14 18
-63 36 -110 17 -47 34 -95 37 -107 3 -13 9 -23 14 -23 5 0 8 -4 6 -9 -3 -10
55 -125 66 -129 4 -2 7 -10 7 -18 0 -8 5 -14 10 -14 6 0 10 -6 10 -14 0 -8 3
-16 8 -18 4 -2 26 -28 48 -58 155 -205 384 -335 679 -385 52 -9 437 -15 450
-7 6 4 19 8 30 9 177 26 381 114 510 223 41 35 168 164 167 170 -1 3 8 15 18
28 11 12 20 26 20 31 0 4 8 19 19 32 28 37 86 175 109 264 30 116 37 180 37
360 -1 148 -5 201 -22 280 -4 17 -7 35 -8 40 -3 30 -36 142 -59 200 -24 62
-109 221 -160 299 -66 99 -99 143 -195 254 -78 91 -188 196 -376 357 -38 33
-74 65 -80 71 -5 5 -44 39 -85 75 -41 35 -77 66 -80 69 -3 3 -41 37 -85 75
-118 102 -125 108 -149 130 -13 11 -51 45 -86 75 -101 87 -195 181 -234 234
-40 53 -95 155 -102 190 -52 237 -43 421 27 557 26 52 104 128 165 161 54 29
169 62 184 53 6 -3 10 -3 10 2 0 4 37 7 82 6 46 -2 92 -3 103 -3 31 -1 149
-31 160 -41 5 -5 17 -9 27 -9 10 0 18 -4 18 -10 0 -5 7 -10 15 -10 31 0 131
-116 172 -201 72 -149 104 -274 128 -499 8 -71 12 -83 26 -75 8 6 23 10 78 21
14 3 28 7 33 10 4 3 16 7 25 9 39 7 260 67 283 76 14 5 38 12 54 15 41 7 66
22 61 37 -3 6 -7 35 -9 62 -5 53 -18 132 -34 203 -6 23 -10 45 -11 47 -1 3 -1
6 -2 8 0 1 -3 13 -5 27 -22 120 -132 365 -203 453 -49 61 -107 124 -125 136
-12 8 -23 18 -26 21 -9 12 -124 87 -165 108 -40 20 -183 70 -220 78 -11 2 -31
6 -45 9 -57 12 -78 15 -140 21 -60 6 -298 12 -303 8z"/>
<path d="M1095 17761 c-3 -14 -8 -36 -10 -48 -3 -13 -7 -33 -10 -45 -3 -13 -7
-32 -9 -43 -2 -11 -16 -76 -31 -145 -14 -69 -28 -134 -31 -145 -2 -11 -7 -33
-11 -50 -3 -16 -8 -37 -9 -45 -1 -8 -5 -26 -8 -40 -3 -14 -8 -34 -10 -45 -2
-11 -9 -40 -15 -65 -5 -25 -13 -61 -16 -80 -3 -19 -15 -73 -25 -120 -10 -47
-22 -100 -25 -119 -3 -19 -7 -37 -9 -40 -2 -3 -7 -23 -10 -43 -3 -21 -11 -59
-17 -85 -6 -27 -13 -59 -15 -72 -3 -12 -12 -53 -21 -90 -8 -36 -17 -77 -18
-91 -2 -14 -6 -34 -8 -45 -24 -98 -38 -160 -42 -188 -4 -17 -15 -70 -25 -117
-10 -47 -21 -98 -23 -115 -3 -16 -9 -48 -15 -70 -6 -22 -13 -53 -16 -70 -3
-16 -7 -41 -11 -55 -3 -14 -8 -41 -11 -60 -3 -19 -8 -38 -10 -41 -2 -3 -6 -21
-9 -40 -3 -19 -15 -72 -25 -119 -10 -47 -21 -96 -23 -110 -3 -14 -8 -36 -11
-50 -3 -14 -8 -36 -10 -50 -3 -14 -7 -35 -10 -47 -8 -32 -21 -95 -40 -188 -3
-11 -10 -42 -16 -70 -6 -27 -14 -60 -16 -72 -10 -55 -14 -74 -38 -183 -14 -63
-27 -127 -30 -142 -3 -16 -8 -38 -11 -50 -49 -230 -77 -368 -81 -388 -3 -14
-12 -54 -20 -90 -8 -35 -21 -98 -30 -140 -8 -41 -21 -102 -29 -135 -8 -33 -16
-71 -19 -85 -4 -27 -35 -172 -42 -205 -3 -11 -7 -29 -9 -40 -3 -20 -6 -34 -25
-115 -5 -25 -12 -58 -14 -75 -2 -16 -5 -30 -6 -30 -1 0 -3 -10 -6 -22 -3 -20
1 -22 62 -25 36 -1 68 0 71 5 2 4 9 4 15 1 10 -6 91 -9 113 -4 6 1 13 1 18 0
18 -4 138 -2 143 3 3 3 18 2 33 -3 16 -4 34 -4 41 0 7 5 23 4 36 0 12 -5 24
-7 26 -5 2 3 15 6 28 8 14 2 25 12 26 23 2 10 10 53 19 94 9 41 16 82 16 90 1
8 5 33 10 55 4 22 10 54 13 70 3 17 8 41 11 55 3 14 7 39 10 55 3 17 10 55 17
85 6 30 12 64 14 75 2 11 5 29 7 40 2 11 8 38 12 60 8 43 12 66 20 105 12 59
19 96 21 115 1 11 3 20 4 20 2 0 6 18 13 60 26 151 30 165 46 166 58 4 934 3
936 -1 2 -3 6 -24 9 -46 4 -22 9 -51 12 -64 2 -14 7 -40 9 -57 3 -18 10 -54
16 -80 6 -27 12 -61 14 -78 4 -29 6 -40 25 -140 15 -74 23 -128 24 -147 0 -10
4 -18 9 -18 4 0 6 -4 3 -8 -3 -4 -1 -26 4 -49 5 -22 12 -55 14 -74 3 -19 10
-59 16 -89 10 -52 13 -67 26 -142 3 -18 9 -52 15 -75 5 -24 8 -46 7 -50 -6
-24 15 -51 42 -55 17 -3 30 -1 30 3 0 5 6 6 14 3 24 -9 79 -10 102 -3 12 4 25
5 28 2 7 -8 135 -8 142 0 3 3 16 2 28 -2 11 -5 30 -5 41 -1 11 4 33 5 50 3 16
-3 37 -4 45 -4 32 2 46 3 55 1 29 -6 56 1 48 13 -4 6 -8 19 -8 27 -1 8 -4 29
-8 45 -10 43 -17 76 -24 110 -8 46 -11 60 -13 60 -1 0 -3 9 -4 20 -2 11 -6 34
-10 50 -3 17 -9 40 -11 53 -3 12 -7 32 -10 45 -3 12 -13 56 -21 97 -8 41 -19
93 -25 115 -6 22 -13 51 -15 65 -2 14 -5 34 -8 45 -5 23 -32 148 -40 185 -3
14 -7 34 -9 45 -3 11 -13 56 -22 100 -16 79 -20 97 -29 143 -3 13 -7 31 -10
40 -3 9 -7 28 -10 42 -3 14 -7 35 -10 46 -2 12 -7 38 -10 59 -4 20 -8 41 -11
45 -3 5 -7 21 -9 37 -3 15 -7 39 -10 53 -3 14 -7 36 -10 50 -18 90 -58 275
-70 325 -8 33 -17 74 -19 90 -3 17 -10 53 -17 80 -20 85 -21 89 -26 113 -2 12
-6 32 -8 45 -2 12 -14 65 -26 117 -12 52 -23 106 -25 120 -2 14 -15 75 -29
135 -14 61 -27 121 -29 135 -3 14 -14 68 -25 120 -28 128 -29 131 -52 245 -12
55 -23 108 -25 118 -2 10 -6 26 -9 35 -3 9 -8 35 -12 57 -8 48 -12 70 -14 70
-2 0 -6 20 -14 65 -4 19 -9 42 -11 50 -6 20 -15 64 -25 121 -5 25 -15 75 -24
110 -9 35 -18 75 -20 89 -3 14 -8 36 -11 50 -3 14 -8 39 -10 55 -3 17 -12 57
-20 90 -8 33 -16 74 -19 90 -3 17 -7 39 -10 50 -6 26 -55 253 -62 285 -2 14
-8 39 -11 55 -4 17 -8 35 -9 40 0 6 -5 28 -9 50 -5 22 -9 43 -10 47 -1 20 -43
23 -325 24 l-309 0 -6 -25z m331 -936 c1 -7 5 -32 8 -55 3 -23 8 -45 10 -49 3
-4 7 -29 11 -55 3 -27 7 -52 10 -55 2 -4 6 -25 9 -47 2 -21 9 -59 14 -84 6
-25 13 -63 16 -85 4 -22 13 -72 21 -112 8 -39 18 -89 21 -110 3 -21 12 -69 20
-108 8 -38 17 -86 19 -105 3 -19 8 -46 11 -60 9 -38 14 -62 19 -95 2 -16 7
-43 10 -60 3 -16 10 -55 16 -85 5 -30 16 -89 24 -130 8 -41 17 -88 20 -105 3
-16 8 -41 11 -55 3 -13 7 -38 10 -55 2 -16 6 -41 9 -55 3 -14 8 -41 11 -60 3
-19 7 -42 10 -50 3 -8 8 -33 11 -55 3 -22 9 -47 14 -56 4 -9 6 -19 3 -21 -2
-3 2 -36 10 -74 8 -38 17 -85 20 -104 3 -19 8 -45 10 -56 4 -21 2 -21 -158
-21 -89 0 -167 -3 -174 -7 -7 -4 -12 -3 -12 2 0 5 -19 7 -42 5 -24 -2 -47 -4
-53 -4 -118 6 -194 5 -207 -1 -10 -5 -18 -5 -18 -1 0 5 -25 8 -55 7 -46 -1
-55 2 -51 15 3 9 8 34 11 56 3 23 8 52 10 65 3 14 12 63 21 110 9 47 18 94 20
105 11 54 14 72 19 100 3 17 7 41 10 55 3 14 7 39 10 55 3 17 7 39 9 50 4 22
32 173 41 220 13 75 16 93 26 145 6 30 12 66 14 80 8 53 17 96 25 129 5 19 7
38 4 42 -2 4 0 10 6 14 6 4 8 10 6 13 -2 4 0 30 6 57 13 63 18 94 22 125 2 14
11 61 21 105 9 44 18 94 20 110 2 17 4 32 5 35 1 3 3 10 4 15 2 13 17 94 22
120 2 11 7 34 9 50 8 43 26 137 30 155 2 8 4 26 4 39 1 25 13 22 17 -4z"/>
<path d="M3163 17783 c-10 -4 -9 -3185 0 -3200 4 -7 3 -14 -3 -18 -6 -4 -8
-10 -5 -15 3 -5 8 -58 10 -117 2 -59 7 -124 9 -143 3 -19 8 -60 12 -90 10 -94
20 -158 39 -245 2 -11 7 -32 10 -48 10 -49 57 -191 82 -247 26 -59 107 -193
132 -220 9 -9 25 -27 37 -41 22 -26 106 -102 145 -132 68 -52 243 -131 342
-153 9 -2 27 -6 40 -9 12 -3 38 -7 57 -10 19 -3 51 -8 70 -11 50 -10 455 -10
515 -2 28 5 62 10 78 13 15 3 39 7 54 10 60 10 203 61 270 96 80 42 186 123
249 190 62 68 162 221 156 242 -1 4 3 7 8 7 6 0 10 4 10 9 0 5 8 26 17 47 9
22 18 44 19 49 2 6 12 42 24 80 12 39 23 81 26 95 2 14 7 36 9 50 9 42 13 66
19 101 3 19 8 44 10 56 3 12 7 53 11 90 3 37 8 91 11 118 3 28 7 97 9 155 6
149 7 3279 1 3288 -2 4 -141 8 -308 7 l-303 0 -1 -1645 c-1 -905 -5 -1681 -9
-1725 -4 -44 -8 -96 -10 -115 -5 -64 -18 -138 -36 -220 -6 -25 -12 -52 -14
-60 -2 -8 -11 -37 -20 -65 -63 -186 -153 -286 -309 -342 -61 -22 -119 -28
-246 -27 -91 0 -131 6 -190 24 -41 13 -82 29 -91 37 -8 7 -21 13 -27 13 -19 0
-126 112 -147 155 -11 22 -22 42 -25 45 -8 8 -44 119 -65 200 -1 6 -24 137
-31 185 -10 59 -15 122 -18 227 -2 59 -6 110 -9 115 -2 4 -2 16 2 25 3 9 4 78
1 153 -3 76 -3 138 0 140 3 2 3 56 0 120 -3 64 -3 118 0 120 3 2 3 56 0 120
-3 64 -3 118 0 120 3 2 3 56 0 120 -3 64 -3 118 0 120 3 2 3 56 0 120 -3 64
-3 118 0 120 3 2 3 56 0 120 -3 64 -3 118 0 120 3 2 3 56 0 120 -3 64 -3 118
0 120 3 2 3 56 0 120 -3 64 -3 118 0 120 3 2 3 56 0 120 -3 64 -3 118 0 120 3
2 3 56 0 120 -3 64 -3 118 0 120 3 2 3 56 0 120 -3 64 -3 118 0 120 3 2 3 74
0 160 -3 86 -3 158 0 160 3 2 3 38 0 82 l-5 78 -302 0 c-166 0 -305 -1 -310
-2z"/>
<path d="M6050 17735 c-3 -232 -1 -416 4 -424 4 -6 156 -9 394 -9 l387 1 1
-2025 c0 -1114 4 -2033 7 -2042 4 -9 3 -15 -1 -12 -7 4 -8 -91 -1 -98 4 -5
107 -9 124 -6 6 1 15 1 20 0 6 -1 30 -2 55 -2 25 0 50 1 55 2 6 1 13 1 18 0
18 -4 138 -2 143 3 3 3 16 2 29 -3 13 -5 25 -7 28 -4 8 9 61 11 82 4 11 -4 29
-4 40 0 11 4 28 3 37 -2 17 -8 18 100 18 2083 0 1151 2 2094 4 2097 3 2 175 5
383 6 l378 1 0 233 c0 129 -2 237 -5 241 -3 4 -499 7 -1102 7 l-1098 -1 0 -50z"/>
<path d="M13127 17775 c-1 -5 -2 -1053 -2 -2328 1 -1922 3 -2320 14 -2327 8
-4 27 -4 42 0 16 5 29 6 29 2 0 -6 65 -7 80 -2 3 2 10 1 15 0 12 -2 211 -2
223 1 4 1 12 0 17 -1 13 -2 87 -2 100 0 6 1 14 2 19 1 12 -3 168 -3 181 0 6 1
15 0 20 -1 24 -5 95 -3 100 2 4 3 18 3 33 -1 15 -4 43 -4 63 -1 19 4 44 3 55
0 10 -4 26 -4 34 0 8 4 24 4 35 0 11 -4 32 -4 48 1 15 4 27 5 27 1 0 -8 188
-7 196 1 3 3 16 2 28 -2 11 -5 29 -5 40 -2 10 4 41 4 68 1 27 -4 51 -3 54 1 2
5 11 6 19 3 23 -9 105 -10 105 -1 0 5 5 5 10 2 19 -12 152 -8 159 4 4 6 7 112
7 234 l-1 222 -575 0 c-316 1 -580 4 -585 7 -7 4 -10 301 -9 855 l0 848 460 1
c253 0 465 3 470 6 5 4 9 101 9 230 l0 223 -48 0 c-26 0 -47 4 -47 8 0 5 -5 5
-11 2 -6 -4 -75 -7 -154 -7 -79 0 -148 3 -154 7 -6 3 -11 3 -11 -2 0 -9 -498
-8 -507 1 -4 3 -7 350 -7 771 l-1 765 30 1 c17 0 276 0 577 1 400 0 548 3 550
12 4 9 2 451 -1 466 -2 11 -1801 6 -1804 -5z"/>
<path d="M15210 17773 c0 -7 11 -36 24 -65 13 -29 36 -82 51 -118 15 -36 36
-85 47 -110 11 -25 24 -54 28 -65 27 -63 53 -124 66 -152 13 -31 23 -54 58
-135 8 -18 28 -67 46 -108 18 -41 38 -88 45 -105 7 -16 22 -50 33 -75 11 -25
32 -74 47 -110 15 -36 36 -84 46 -107 18 -40 40 -92 44 -103 3 -9 22 -54 48
-112 14 -31 23 -59 19 -62 -3 -3 0 -6 6 -6 7 0 12 -5 12 -10 0 -6 9 -30 20
-55 11 -25 29 -65 40 -90 11 -25 20 -47 20 -50 0 -3 16 -40 36 -82 20 -43 37
-82 39 -88 1 -5 10 -28 19 -50 10 -22 24 -53 31 -70 23 -54 43 -99 63 -145 66
-149 63 -131 31 -205 -7 -16 -13 -32 -13 -35 -2 -9 -204 -513 -222 -555 -10
-22 -19 -44 -20 -50 -2 -9 -214 -545 -233 -590 -29 -66 -40 -95 -56 -140 -10
-27 -21 -54 -25 -60 -4 -5 -14 -30 -23 -55 -9 -25 -22 -58 -28 -75 -7 -16 -13
-32 -14 -35 -5 -14 -27 -67 -35 -85 -10 -22 -99 -244 -104 -260 -2 -5 -8 -23
-15 -40 -49 -121 -81 -206 -81 -215 0 -5 -5 -10 -12 -10 -6 0 -9 -2 -6 -5 3
-3 -7 -38 -23 -76 -34 -83 -35 -88 -11 -88 9 0 59 -1 110 -2 51 -1 95 1 98 4
3 3 16 2 28 -2 11 -5 29 -5 40 -2 10 4 41 4 68 1 27 -4 51 -3 54 1 2 5 14 5
26 0 12 -4 37 -5 55 -1 18 5 35 4 38 0 2 -4 17 -5 32 -2 26 5 44 22 49 47 1 6
13 39 27 75 13 36 70 189 127 340 57 151 107 286 113 300 6 14 11 30 13 35 1
6 55 150 119 320 64 171 118 315 119 320 1 6 10 27 19 49 9 21 17 42 17 47 0
5 4 17 9 27 9 16 23 51 25 62 1 3 12 34 26 70 l24 64 34 -74 c19 -41 35 -79
36 -85 1 -5 10 -24 19 -41 9 -17 14 -34 11 -36 -2 -3 2 -11 11 -18 8 -7 15
-18 15 -24 0 -7 11 -36 25 -64 14 -29 25 -55 25 -59 0 -4 9 -25 19 -47 28 -59
55 -121 86 -196 26 -64 34 -82 73 -170 11 -25 57 -131 102 -235 45 -105 88
-205 96 -222 8 -18 20 -48 28 -65 8 -18 23 -53 34 -78 11 -25 34 -79 51 -120
18 -41 43 -97 55 -125 13 -27 27 -60 31 -73 4 -13 14 -22 23 -21 9 1 20 0 25
-1 18 -4 88 -3 93 3 3 3 16 2 28 -2 11 -5 29 -5 40 -2 10 4 41 4 68 1 27 -4
51 -3 54 1 3 5 15 5 27 1 12 -4 33 -7 47 -5 34 3 53 3 134 3 38 0 70 1 71 2 2
3 -94 236 -129 313 -12 26 -39 88 -92 213 -8 17 -20 47 -28 65 -22 52 -77 179
-93 217 -27 63 -40 92 -118 275 -43 99 -84 196 -93 215 -9 19 -16 40 -18 45
-1 6 -14 37 -30 70 -15 33 -29 63 -30 68 -1 4 -3 10 -4 15 -1 4 -2 10 -1 15 0
4 -4 7 -9 7 -6 0 -10 8 -10 18 0 10 -6 26 -14 37 -7 11 -13 22 -13 25 0 5 -13
36 -51 120 -9 19 -17 38 -18 43 -1 4 -3 10 -4 15 -1 4 -2 10 -1 15 0 4 -4 7
-9 7 -6 0 -10 6 -10 14 0 8 -7 27 -15 43 -8 15 -42 91 -74 168 -33 77 -67 158
-77 180 -9 22 -18 42 -19 45 -5 16 -28 69 -42 98 -16 34 -13 59 17 127 5 11
27 59 49 108 22 48 41 91 42 95 3 15 21 58 35 86 8 16 14 35 14 43 0 7 5 13
10 13 6 0 10 6 10 14 0 8 13 43 29 78 26 55 73 165 171 398 28 65 59 137 85
195 7 16 24 56 38 87 14 31 23 59 19 62 -3 3 -1 6 4 6 8 0 35 56 39 80 0 3 8
21 17 40 76 167 358 828 358 840 0 5 5 10 10 10 14 0 12 27 -2 32 -7 2 -143 4
-303 4 l-289 -1 -28 -80 c-16 -44 -33 -84 -38 -89 -6 -6 -10 -18 -10 -28 0
-10 -4 -26 -10 -36 -10 -17 -130 -318 -134 -337 -1 -5 -9 -26 -18 -46 -9 -20
-19 -47 -23 -60 -4 -13 -11 -28 -15 -34 -6 -9 -30 -72 -36 -100 -5 -19 -51
-125 -58 -132 -3 -3 -6 -12 -6 -18 0 -7 -8 -30 -17 -51 -9 -22 -18 -43 -19
-49 -5 -19 -155 -400 -175 -442 -10 -24 -19 -48 -19 -55 -1 -7 -9 -28 -19 -46
l-18 -34 -31 66 c-18 37 -32 70 -32 75 0 4 -13 35 -30 69 -16 34 -30 64 -30
66 0 2 -8 21 -17 42 -9 22 -17 41 -18 44 -1 3 -8 21 -17 40 -8 19 -63 148
-122 285 -59 138 -114 264 -121 280 -52 118 -65 149 -65 161 0 8 -4 14 -8 14
-4 0 -16 24 -26 53 -11 28 -24 61 -30 72 -5 11 -11 22 -12 25 0 3 -9 23 -19
45 -10 22 -19 42 -20 45 -1 3 -9 22 -18 44 -9 21 -17 40 -17 42 0 1 -13 32
-30 67 -16 36 -30 70 -30 76 0 5 -6 13 -12 18 -7 4 -145 8 -305 8 -227 0 -293
-2 -293 -12z"/>
<path d="M18255 17781 c-3 -2 -5 -1052 -5 -2332 0 -2318 0 -2327 20 -2332 11
-3 22 -1 25 4 3 4 16 5 28 0 12 -5 30 -5 41 -2 10 4 41 4 68 1 27 -4 51 -3 54
2 3 5 10 5 16 2 10 -6 91 -9 113 -4 6 1 13 1 18 0 18 -4 138 -2 143 3 3 3 16
2 29 -3 13 -5 26 -6 29 -3 3 4 21 6 38 5 l33 -1 -2 1084 -2 1085 192 0 c248 0
490 7 547 15 37 6 117 23 221 49 52 13 184 77 236 114 17 12 34 22 37 22 4 0
23 15 43 33 99 88 152 154 230 282 39 64 98 223 113 308 6 29 12 63 15 77 10
46 18 124 19 172 1 27 4 48 8 48 4 0 3 11 -2 24 -5 13 -7 26 -5 28 16 15 -2
302 -26 422 -6 28 -12 60 -14 71 -2 11 -6 29 -9 40 -31 116 -39 141 -46 150
-5 6 -8 12 -8 15 -1 32 -83 188 -135 255 -47 62 -187 195 -205 195 -4 0 -18 9
-30 20 -12 12 -22 18 -22 15 0 -3 -19 5 -43 18 -60 34 -174 73 -267 91 -14 3
-34 7 -45 9 -70 16 -231 20 -803 21 -353 1 -645 0 -647 -3z m1062 -466 c105
-4 157 -9 218 -22 17 -4 37 -7 45 -8 8 -1 37 -10 64 -20 173 -60 258 -191 282
-430 21 -209 21 -510 -1 -615 -3 -14 -8 -39 -11 -57 -8 -51 -49 -147 -83 -196
-82 -120 -235 -185 -481 -203 -100 -7 -426 -8 -438 0 -7 4 -10 252 -9 779 l2
772 138 1 c75 0 140 4 143 7 4 4 10 4 15 2 4 -3 56 -7 116 -10z"/>
<path d="M21023 17776 c-7 -11 -8 -4644 -1 -4652 5 -4 160 -8 183 -3 6 1 15 0
20 -1 13 -2 87 -2 100 0 6 1 14 2 19 1 22 -5 175 -3 182 2 5 2 18 1 29 -3 11
-4 32 -4 48 1 15 4 27 4 27 -1 0 -4 9 -6 20 -3 20 5 20 15 20 997 0 545 0
1037 0 1092 l0 102 254 0 255 1 7 -32 c4 -18 9 -37 10 -44 1 -7 9 -34 18 -60
8 -26 17 -59 20 -73 2 -14 9 -36 14 -50 5 -14 10 -29 11 -35 1 -5 6 -26 12
-45 6 -19 13 -48 16 -65 3 -16 8 -32 11 -35 4 -3 8 -14 9 -25 2 -11 34 -132
73 -270 39 -137 73 -257 74 -265 2 -8 10 -35 17 -60 7 -25 13 -48 15 -52 1 -5
2 -9 4 -10 1 -2 3 -10 5 -18 3 -14 10 -42 70 -260 13 -47 30 -105 38 -130 7
-25 12 -51 9 -58 -2 -6 1 -12 6 -12 5 0 12 -12 15 -27 10 -52 17 -82 27 -108
5 -14 6 -25 3 -25 -4 0 -2 -5 5 -12 7 -7 12 -24 12 -38 0 -14 5 -31 12 -38 7
-7 9 -12 6 -12 -3 0 1 -21 9 -47 8 -27 26 -91 39 -143 27 -105 43 -142 56
-134 4 3 8 2 8 -3 0 -7 64 -9 80 -3 3 2 10 1 15 0 23 -5 186 -2 191 3 3 3 16
2 28 -2 11 -5 29 -5 40 -2 10 4 41 4 68 1 27 -4 51 -3 54 1 2 5 14 5 24 1 11
-4 38 -6 60 -4 42 4 53 25 28 50 -7 7 -9 12 -6 12 4 0 -3 30 -14 68 -11 37
-26 90 -33 117 -7 28 -30 106 -50 175 -20 69 -43 150 -51 180 -8 30 -22 80
-31 110 -10 30 -17 57 -18 60 -1 11 -27 106 -32 120 -4 8 -7 20 -9 27 -3 17
-42 154 -70 248 -13 44 -26 91 -29 105 -3 14 -9 36 -15 50 -5 14 -12 36 -14
50 -3 14 -5 26 -7 28 -1 1 -2 5 -3 10 0 4 -7 25 -13 47 -7 22 -31 105 -53 185
-22 80 -45 159 -50 177 -6 18 -13 40 -15 50 -9 38 -42 149 -49 165 -4 9 -5 22
-1 28 3 5 2 10 -3 10 -5 0 -9 6 -9 13 -1 6 -11 44 -23 82 -12 39 -22 77 -22
85 -1 8 -5 21 -11 28 -5 6 -7 12 -3 12 3 0 1 11 -4 24 -8 21 -6 26 13 32 53
16 163 77 209 116 66 55 120 108 111 108 -5 0 -3 4 3 8 42 29 143 227 169 332
14 56 38 171 41 199 2 19 6 50 10 70 9 54 12 382 3 448 -4 32 -10 78 -13 103
-3 25 -8 56 -11 70 -3 14 -8 38 -11 54 -2 16 -7 32 -9 36 -2 3 -6 17 -8 31
-11 57 -76 204 -118 267 -16 24 -29 45 -29 48 0 7 -78 91 -109 118 -13 12 -31
28 -40 37 -31 30 -139 98 -202 127 -129 58 -258 96 -394 116 -16 2 -30 5 -30
6 0 1 -18 4 -40 6 -22 1 -67 6 -100 10 -97 10 -1176 11 -1182 0z m1152 -469
c18 -4 93 -19 105 -22 42 -11 73 -22 110 -38 25 -11 48 -20 53 -19 4 1 7 -2 7
-7 0 -5 8 -12 18 -15 16 -5 54 -41 117 -108 9 -10 13 -18 8 -18 -4 0 -3 -4 2
-8 15 -11 45 -79 64 -142 25 -88 35 -188 36 -365 0 -126 -8 -273 -15 -282 -3
-3 -4 -7 -14 -57 -21 -107 -79 -212 -157 -286 -55 -53 -168 -110 -249 -127
-45 -9 -55 -11 -55 -13 0 -4 -94 -13 -137 -14 -27 -1 -48 -3 -48 -6 0 -7 -338
-5 -345 2 -3 3 -6 250 -6 549 1 299 1 644 1 766 l0 223 243 -5 c133 -3 251 -6
262 -8z"/>
<path d="M24007 17775 c-7 -22 -1 -4641 6 -4652 5 -8 15 -9 31 -3 13 5 27 6
30 3 7 -8 135 -8 142 0 3 3 16 2 28 -2 11 -5 30 -5 41 -1 11 4 34 4 52 -1 18
-4 35 -3 38 2 3 4 16 5 28 0 12 -5 30 -5 41 -2 10 4 41 4 68 1 27 -4 51 -3 54
2 3 5 10 5 16 2 13 -9 263 -8 277 0 6 4 11 4 11 -1 0 -4 16 -8 35 -8 19 0 35
3 35 6 0 4 16 3 35 -1 19 -4 37 -4 40 1 3 4 16 5 28 0 12 -5 30 -5 41 -2 10 4
41 4 68 1 27 -4 51 -3 54 2 3 5 10 5 16 2 10 -6 91 -9 113 -4 6 1 13 1 18 0
17 -4 135 -3 143 2 5 3 18 2 29 -2 11 -4 29 -4 40 -1 11 4 31 6 45 4 14 -1 50
-3 80 -3 82 1 110 0 123 -3 8 -1 11 61 12 223 1 124 0 230 -2 236 -3 7 -178
11 -571 11 -312 1 -574 2 -582 2 -13 1 -15 103 -15 854 l0 852 470 1 469 1 1
219 c0 120 -1 224 -3 231 -2 8 -43 11 -136 11 -74 -1 -138 2 -143 5 -6 4 -13
4 -17 0 -8 -8 -626 -7 -634 2 -4 3 -7 350 -7 771 l0 764 25 1 c14 0 275 1 579
2 l555 2 0 222 c1 122 -1 230 -4 240 -5 18 -39 19 -902 18 -594 0 -899 -3
-901 -10z"/>
<path d="M4 12481 c-2 -2 -4 -112 -4 -243 l0 -239 53 1 c28 0 59 0 67 -1 8 0
40 0 70 0 30 0 63 0 73 0 83 0 116 0 142 1 17 1 37 2 45 2 8 -1 143 -1 300 -1
157 0 292 0 300 0 8 0 35 0 60 0 25 0 54 0 65 -1 11 -1 25 -1 30 -1 6 0 39 0
75 0 36 0 76 1 90 1 14 1 32 2 40 1 8 0 143 0 300 0 157 1 294 0 305 -1 23 -1
21 -1 95 -1 30 0 63 0 73 0 24 0 103 0 125 0 9 0 44 0 77 0 33 0 65 0 70 -1 6
0 57 1 115 1 58 0 112 0 120 0 8 0 33 0 55 0 22 0 47 0 55 0 8 0 49 0 90 0 41
0 83 0 93 0 9 0 37 0 62 0 25 0 51 0 58 0 6 0 57 0 112 0 55 0 107 0 115 0 8
0 33 0 55 0 22 0 47 0 55 0 25 -1 173 0 205 2 17 0 37 1 45 0 8 0 62 0 120 0
58 1 112 1 120 0 8 0 35 0 60 0 25 0 51 1 58 0 6 0 32 0 57 0 25 0 52 0 60 0
8 0 35 0 60 0 25 0 53 0 63 0 54 0 589 0 602 0 8 0 35 0 60 0 25 0 54 0 65 -1
11 -1 25 -1 30 -1 6 0 39 0 75 0 36 0 76 1 90 1 14 1 32 2 40 1 8 0 143 0 300
0 157 1 294 0 305 -1 23 -1 21 -1 95 -1 30 0 63 0 73 0 24 0 103 0 125 0 9 0
44 0 77 0 33 0 65 0 70 -1 6 0 57 1 115 1 58 0 112 0 120 0 8 0 33 0 55 0 22
0 47 0 55 0 8 0 49 0 90 0 41 0 83 0 93 0 9 0 37 0 62 0 25 0 51 0 58 0 6 0
57 0 112 0 55 0 107 0 115 0 8 0 33 0 55 0 22 0 47 0 55 0 25 -1 173 0 205 2
17 0 37 1 45 0 8 0 62 0 120 0 58 1 112 1 120 0 8 0 35 0 60 0 25 0 51 1 58 0
6 0 32 0 57 0 25 0 52 0 60 0 8 0 35 0 60 0 25 0 53 0 63 0 54 0 589 0 602 0
8 0 35 0 60 0 25 0 54 0 65 -1 11 -1 25 -1 30 -1 6 0 39 0 75 0 36 0 76 1 90
1 14 1 32 2 40 1 8 0 143 0 300 0 157 1 294 0 305 -1 23 -1 21 -1 95 -1 30 0
63 0 73 0 24 0 103 0 125 0 9 0 44 0 77 0 33 0 65 0 70 -1 6 0 57 1 115 1 58
0 112 0 120 0 8 0 33 0 55 0 22 0 47 0 55 0 8 0 49 0 90 0 41 0 83 0 93 0 9 0
37 0 62 0 25 0 51 0 58 0 6 0 57 0 112 0 55 0 107 0 115 0 8 0 33 0 55 0 22 0
47 0 55 0 25 -1 173 0 205 2 17 0 37 1 45 0 8 0 62 0 120 0 58 1 112 1 120 0
8 0 35 0 60 0 25 0 51 1 58 0 6 0 32 0 57 0 25 0 52 0 60 0 8 0 35 0 60 0 25
0 53 0 63 0 35 0 597 0 607 0 79 -2 152 -2 160 -1 6 1 23 1 39 0 25 -2 28 1
23 19 -3 12 -2 21 1 21 6 0 7 56 2 70 -1 3 -1 10 0 15 5 23 3 133 -4 143 -3 6
-2 13 3 16 5 3 5 21 1 41 -4 19 -5 35 -1 35 3 0 6 14 6 30 0 17 -3 30 -7 30
-4 0 -3 11 2 24 13 35 -7 39 -170 37 -74 -1 -154 -2 -177 -2 -24 0 -63 0 -88
0 -25 0 -51 0 -57 0 -7 0 -74 0 -148 1 -74 0 -157 0 -185 0 -115 0 -138 -1
-146 -6 -5 -3 -9 -2 -9 3 0 4 -53 7 -117 5 -191 -4 -274 -3 -283 3 -5 3 -11 1
-15 -5 -4 -6 -10 -8 -15 -5 -9 5 -279 9 -305 4 -5 -1 -13 -1 -18 0 -12 2 -291
2 -302 0 -5 -1 -14 -1 -19 0 -12 3 -288 3 -301 0 -5 -1 -14 -1 -19 0 -5 1 -59
1 -120 1 -61 -1 -117 -1 -123 -1 -7 0 -33 0 -58 0 -25 0 -51 0 -57 0 -7 0 -74
0 -148 1 -74 0 -157 0 -185 0 -115 0 -138 -1 -146 -6 -5 -3 -9 -2 -9 3 0 4
-51 7 -112 6 -62 -2 -153 -3 -203 -3 -49 1 -103 0 -120 -1 -16 0 -37 -1 -45 0
-8 0 -53 0 -100 0 -47 0 -91 0 -97 0 -7 0 -33 0 -58 0 -25 0 -51 0 -57 0 -7 0
-74 0 -148 1 -74 0 -157 0 -185 0 -115 0 -138 -1 -146 -6 -5 -3 -9 -2 -9 3 0
4 -51 7 -112 6 -62 -2 -153 -3 -203 -3 -49 1 -103 0 -120 -1 -16 0 -34 -1 -40
0 -25 1 -251 2 -260 0 -5 -1 -14 -1 -19 0 -12 3 -288 3 -301 0 -5 -1 -13 -1
-18 0 -12 2 -291 2 -302 0 -5 -1 -14 -1 -19 0 -12 3 -288 3 -301 0 -5 -1 -14
-1 -18 0 -4 1 -79 1 -165 1 -86 0 -179 0 -207 0 -117 0 -138 -1 -146 -6 -5 -3
-9 -2 -9 3 0 4 -51 7 -112 6 -62 -2 -153 -3 -203 -3 -49 1 -103 0 -120 -1 -16
0 -34 -1 -40 0 -5 0 -71 0 -145 1 -74 0 -157 0 -185 0 -115 0 -138 -1 -146 -6
-5 -3 -9 -2 -9 3 0 4 -51 7 -112 6 -62 -2 -153 -3 -203 -3 -49 1 -103 0 -120
-1 -16 0 -34 -1 -40 0 -5 0 -71 0 -145 1 -74 0 -157 0 -185 0 -115 0 -138 -1
-146 -6 -5 -3 -9 -2 -9 3 0 4 -53 7 -117 5 -191 -4 -274 -3 -283 3 -5 3 -11 1
-15 -5 -4 -6 -10 -8 -15 -5 -9 5 -279 9 -305 4 -5 -1 -13 -1 -18 0 -12 2 -291
2 -302 0 -5 -1 -14 -1 -19 0 -12 3 -288 3 -301 0 -5 -1 -14 -1 -19 0 -5 1 -59
1 -120 1 -61 -1 -117 -1 -123 -1 -7 0 -33 0 -58 0 -25 0 -51 0 -57 0 -7 0 -74
0 -148 1 -74 0 -157 0 -185 0 -115 0 -138 -1 -146 -6 -5 -3 -9 -2 -9 3 0 4
-51 7 -112 6 -62 -2 -153 -3 -203 -3 -49 1 -103 0 -120 -1 -16 0 -37 -1 -45 0
-8 0 -53 0 -100 0 -47 0 -91 0 -97 0 -7 0 -33 0 -58 0 -25 0 -51 0 -57 0 -7 0
-74 0 -148 1 -74 0 -157 0 -185 0 -115 0 -138 -1 -146 -6 -5 -3 -9 -2 -9 3 0
4 -51 7 -112 6 -62 -2 -153 -3 -203 -3 -50 1 -103 0 -120 -1 -16 0 -34 -1 -40
0 -75 4 -138 5 -141 2z"/>
</g>
</svg>
